<svg width="13" height="15" viewBox="0 0 13 15" fill="none" xmlns="http://www.w3.org/2000/svg">
<path d="M12.0208 5.28868L10.4734 14.5266C10.4492 14.6591 10.3793 14.779 10.276 14.8654C10.1727 14.9519 10.0424 14.9995 9.90762 15H2.79446C2.65972 14.9995 2.5294 14.9519 2.42607 14.8654C2.32273 14.779 2.25289 14.6591 2.22864 14.5266L0.681293 5.28868C0.667965 5.20647 0.672582 5.12234 0.694829 5.04207C0.717076 4.96181 0.756426 4.88731 0.810177 4.82369C0.863929 4.76006 0.93081 4.70882 1.00623 4.67348C1.08165 4.63814 1.16382 4.61953 1.24711 4.61894H11.4434C11.5277 4.61785 11.6112 4.63522 11.688 4.66983C11.7648 4.70444 11.8331 4.75545 11.8882 4.81927C11.9432 4.8831 11.9836 4.95819 12.0065 5.03928C12.0294 5.12038 12.0343 5.2055 12.0208 5.28868ZM12.7021 2.88684C12.7021 3.03996 12.6413 3.18682 12.533 3.2951C12.4247 3.40337 12.2778 3.4642 12.1247 3.4642H0.577367C0.42424 3.4642 0.277384 3.40337 0.169107 3.2951C0.0608297 3.18682 0 3.03996 0 2.88684C0 2.73371 0.0608297 2.58685 0.169107 2.47858C0.277384 2.3703 0.42424 2.30947 0.577367 2.30947H3.4642V0.577367C3.4642 0.42424 3.52503 0.277384 3.63331 0.169107C3.74159 0.0608296 3.88844 0 4.04157 0H8.66051C8.81364 0 8.96049 0.0608296 9.06877 0.169107C9.17705 0.277384 9.23788 0.42424 9.23788 0.577367V2.30947H12.1247C12.2778 2.30947 12.4247 2.3703 12.533 2.47858C12.6413 2.58685 12.7021 2.73371 12.7021 2.88684ZM8.08314 2.30947V1.15473H4.61894V2.30947H8.08314Z" fill="#030265"/>
</svg>
