<svg width="17" height="17" viewBox="0 0 17 17" fill="none" xmlns="http://www.w3.org/2000/svg">
<path d="M8.5 16H16M11 2.85849L13.5 5.48679M12.25 1.54434C12.5815 1.1958 13.0312 1 13.5 1C13.7321 1 13.962 1.04807 14.1765 1.14147C14.391 1.23487 14.5858 1.37176 14.75 1.54434C14.9142 1.71692 15.0444 1.92179 15.1332 2.14728C15.222 2.37276 15.2678 2.61443 15.2678 2.85849C15.2678 3.10255 15.222 3.34422 15.1332 3.5697C15.0444 3.79519 14.9142 4.00006 14.75 4.17264L4.33333 15.1239L1 16L1.83333 12.4956L12.25 1.54434Z" stroke="#030265" stroke-width="2" stroke-linecap="round" stroke-linejoin="round"/>
</svg>
