<svg width="47" height="45" viewBox="0 0 47 45" fill="none" xmlns="http://www.w3.org/2000/svg">
<path id="Vector" d="M22.9158 6.125e-05C16.8283 0.0278243 10.9998 2.4106 6.70533 6.62716C2.41084 10.8437 -6.62859e-05 16.5508 1.36688e-09 22.5C1.36689e-09 28.4674 2.42566 34.1903 6.74336 38.4099C11.0611 42.6295 16.9171 45 23.0233 45C29.1294 45 34.9855 42.6295 39.3032 38.4099C43.6209 34.1903 46.0465 28.4674 46.0465 22.5C46.0465 16.5327 43.6209 10.8097 39.3032 6.59015C34.9855 2.37059 29.1294 6.125e-05 23.0233 6.125e-05C22.9874 -2.04167e-05 22.9516 -2.04167e-05 22.9158 6.125e-05ZM32.4359 13.545C32.6278 13.5413 33.0518 13.5882 33.3281 13.8075C33.5117 13.9633 33.6287 14.1808 33.6562 14.4169C33.6869 14.5913 33.7252 14.9907 33.6945 15.3019C33.3492 18.8607 31.8488 27.4931 31.0852 31.4775C30.7629 33.165 30.1278 33.7294 29.512 33.7838C28.1766 33.9056 27.1617 32.9213 25.8666 32.0925C23.8406 30.7931 22.6952 29.985 20.7286 28.7175C18.4551 27.255 19.9285 26.4488 21.2236 25.1363C21.5632 24.7913 27.4533 19.5544 27.5684 19.08C27.5819 19.02 27.5953 18.7988 27.461 18.6825C27.3267 18.5663 27.1272 18.6057 26.9833 18.6375C26.7799 18.6825 23.5432 20.775 17.2732 24.9094C16.3523 25.5282 15.5215 25.8282 14.7752 25.8094C13.954 25.7944 12.3731 25.3575 11.197 24.9844C9.75419 24.525 8.60878 24.2832 8.70855 23.505C8.76035 23.1 9.33209 22.6857 10.4219 22.2619C17.1331 19.4044 21.6073 17.52 23.8483 16.6107C30.241 14.0119 31.5706 13.56 32.4359 13.545Z" fill="black"/>
</svg>
