<svg width="24" height="24" viewBox="0 0 24 24" fill="none" xmlns="http://www.w3.org/2000/svg">
<path d="M12 23H23M15.6667 3.72579L19.3333 7.58063M17.5 1.79836C17.9862 1.28718 18.6457 1 19.3333 1C19.6738 1 20.011 1.0705 20.3255 1.20749C20.6401 1.34447 20.9259 1.54525 21.1667 1.79836C21.4074 2.05148 21.5984 2.35196 21.7287 2.68267C21.859 3.01338 21.9261 3.36783 21.9261 3.72579C21.9261 4.08374 21.859 4.43819 21.7287 4.7689C21.5984 5.09961 21.4074 5.40009 21.1667 5.65321L5.88889 21.7151L1 23L2.22222 17.8602L17.5 1.79836Z" stroke="black" stroke-width="2" stroke-linecap="round" stroke-linejoin="round"/>
</svg>
