<svg width="36" height="35" viewBox="0 0 36 35" fill="none" xmlns="http://www.w3.org/2000/svg">
<path d="M17.8234 0.00029178C13.0887 0.0218852 8.55541 1.87516 5.21525 5.1547C1.8751 8.43425 -5.15557e-05 12.8731 1.06313e-09 17.5003C1.06314e-09 22.1416 1.88662 26.5927 5.24483 29.8746C8.60304 33.1565 13.1578 35.0002 17.907 35.0002C22.6562 35.0002 27.2109 33.1565 30.5691 29.8746C33.9273 26.5927 35.814 22.1416 35.814 17.5003C35.814 12.859 33.9273 8.4078 30.5691 5.12592C27.2109 1.84403 22.6562 0.00029178 17.907 0.00029178C17.8791 0.000228261 17.8513 0.000228261 17.8234 0.00029178ZM25.2279 10.5353C25.3772 10.5324 25.707 10.5688 25.9218 10.7394C26.0646 10.8606 26.1557 11.0298 26.177 11.2134C26.2009 11.349 26.2307 11.6597 26.2069 11.9017C25.9383 14.6696 24.7713 21.3838 24.1774 24.4828C23.9267 25.7953 23.4328 26.2342 22.9538 26.2765C21.9152 26.3713 21.1258 25.6057 20.1185 24.9611C18.5427 23.9505 17.6518 23.3219 16.1222 22.3361C14.3539 21.1986 15.5 20.5715 16.5072 19.5507C16.7714 19.2823 21.3526 15.2092 21.4421 14.8403C21.4526 14.7936 21.463 14.6215 21.3585 14.5311C21.2541 14.4407 21.0989 14.4713 20.987 14.4961C20.8288 14.5311 18.3114 16.1586 13.4347 19.3742C12.7184 19.8555 12.0723 20.0888 11.4918 20.0742C10.8531 20.0626 9.62351 19.7228 8.70876 19.4326C7.58659 19.0753 6.69572 18.8871 6.77331 18.2819C6.8136 17.9669 7.25829 17.6446 8.10589 17.3151C13.3258 15.0926 16.8057 13.6269 18.5486 12.9196C23.5208 10.8984 24.5549 10.5469 25.2279 10.5353Z" fill="#7823D1"/>
</svg>
