<svg width="47" height="45" viewBox="0 0 47 45" fill="none" xmlns="http://www.w3.org/2000/svg">
<path id="Vector" d="M22.6422 9.33918C26.2231 9.33918 29.5973 10.9266 32.0701 13.4082V13.4155C32.0701 12.2239 32.8719 11.3224 33.9801 11.3224H34.2615C36.0102 11.3224 36.3605 12.9714 36.3605 13.4918L36.3678 32.012C36.2462 33.2257 37.6211 33.8531 38.3848 33.0733C41.353 30.02 44.9104 17.3614 36.5364 10.0325C28.7267 3.19166 18.2448 4.32178 12.6719 8.16215C6.7486 12.2546 2.96247 21.2942 6.64013 29.7899C10.6564 39.0522 22.1379 41.8152 28.9714 39.0595C32.4307 37.6626 34.0255 42.3326 30.4299 43.8615C25.0109 46.173 9.90884 45.937 2.85546 33.7226C-1.90982 25.4717 -1.65771 10.9574 10.9862 3.43791C20.6502 -2.31825 33.4011 -0.72347 41.0877 7.30173C49.1202 15.6992 48.6555 31.411 40.8136 37.519C37.262 40.2967 31.988 37.5952 32.0262 33.5482L31.9866 32.229C29.5138 34.6783 26.2231 36.1148 22.6422 36.1148C15.558 36.1148 9.32106 29.8764 9.32106 22.7995C9.32106 15.6465 15.558 9.34211 22.6422 9.34211V9.33918ZM31.5527 22.288C31.2845 17.1035 27.4368 13.9813 22.7873 13.9813H22.6114C17.2525 13.9813 14.2754 18.2028 14.2754 22.9886C14.2754 28.3549 17.871 31.7438 22.5894 31.7438C27.856 31.7438 31.3138 27.8902 31.5659 23.3316L31.5527 22.288Z" fill="black"/>
</svg>
