<svg width="35" height="35" viewBox="0 0 35 35" fill="none" xmlns="http://www.w3.org/2000/svg">
<path d="M12.32 33.9613C14 34.4653 15.6975 34.7608 17.5 34.7608C22.1413 34.7608 26.5925 32.9296 29.8744 29.6702C33.1563 26.4107 35 21.9899 35 17.3804C35 15.098 34.5474 12.8379 33.6679 10.7292C32.7884 8.62051 31.4994 6.70451 29.8744 5.0906C28.2493 3.47668 26.3202 2.19645 24.197 1.323C22.0738 0.449557 19.7981 0 17.5 0C15.2019 0 12.9262 0.449557 10.803 1.323C8.67984 2.19645 6.75066 3.47668 5.12563 5.0906C1.84374 8.35005 0 12.7708 0 17.3804C0 24.767 4.6725 31.1109 11.27 33.6137C11.1125 32.258 10.955 30.0159 11.27 28.4691L13.2825 19.8832C13.2825 19.8832 12.775 18.8751 12.775 17.2761C12.775 14.8776 14.28 13.0874 15.995 13.0874C17.5 13.0874 18.2 14.1824 18.2 15.5902C18.2 17.0849 17.2025 19.2227 16.695 21.2736C16.3975 22.9769 17.605 24.4716 19.355 24.4716C22.47 24.4716 24.885 21.1693 24.885 16.5114C24.885 12.3401 21.875 9.48969 17.5525 9.48969C12.6175 9.48969 9.7125 13.1396 9.7125 16.9806C9.7125 18.4753 10.2025 19.9874 11.0075 20.9781C11.165 21.0824 11.165 21.2214 11.1125 21.4822L10.605 23.3766C10.605 23.6721 10.4125 23.7764 10.115 23.5678C7.875 22.5945 6.58 19.4313 6.58 16.8764C6.58 11.3842 10.5 6.39598 18.06 6.39598C24.08 6.39598 28.77 10.6889 28.77 16.3897C28.77 22.3686 25.0425 27.1655 19.705 27.1655C18.0075 27.1655 16.345 26.2618 15.75 25.2016L14.5775 29.3207C14.175 30.8154 13.0725 32.8142 12.32 34.0134V33.9613Z" fill="#7823D1"/>
</svg>
