<svg width="45" height="45" viewBox="0 0 45 45" fill="none" xmlns="http://www.w3.org/2000/svg">
<path id="Vector" d="M17.7926 0.00562523L19.1595 0H25.8423L27.2111 0.00562523L28.9249 0.024376L29.7369 0.0375016L30.5206 0.0581274L31.2763 0.0843785L32.0038 0.11438L32.7051 0.153756L33.3801 0.200633L34.027 0.256886L34.6514 0.318763C37.9141 0.686279 40.151 1.47381 41.8386 3.16138C43.5262 4.84895 44.3137 7.08404 44.6812 10.3486L44.745 10.973L44.7994 11.6217L44.8462 12.2968L44.8837 12.9962L44.9306 14.0987L44.9531 14.8675L44.9775 16.075L44.9944 17.7907L45.0019 19.6283L45 25.8405L44.9944 27.2093L44.9756 28.9231L44.9625 29.735L44.9419 30.5188L44.9156 31.2744L44.8856 32.002L44.8462 32.7032L44.7994 33.3783L44.7431 34.0252L44.6812 34.6496C44.3137 37.9122 43.5262 40.1492 41.8386 41.8367C40.151 43.5243 37.9159 44.3118 34.6514 44.6794L34.027 44.7431L33.3783 44.7975L32.7032 44.8444L32.0038 44.8819L30.9013 44.9287L30.1325 44.9512L28.9249 44.9756L27.2093 44.9925L25.3717 45L19.1595 44.9981L17.7907 44.9925L16.0769 44.9737L15.265 44.9606L14.4812 44.94L13.7256 44.9137L12.998 44.8837L12.2968 44.8444L11.6217 44.7975L10.9748 44.7412L10.3504 44.6794C7.08779 44.3118 4.85083 43.5243 3.16326 41.8367C1.47569 40.1492 0.688154 37.9141 0.320638 34.6496L0.256886 34.0252L0.202508 33.3764L0.155631 32.7014L0.11813 32.002L0.071253 30.8994L0.048752 30.1306L0.024376 28.9231L0.00750031 27.2074L0 25.3698L0.00187508 19.1577L0.00750031 17.7889L0.0262511 16.075L0.0393766 15.2631L0.0600025 14.4794L0.0862536 13.7237L0.116255 12.9962L0.155631 12.2949L0.202508 11.6199L0.258761 10.973L0.320638 10.3486C0.688154 7.08592 1.47569 4.84895 3.16326 3.16138C4.85083 1.47381 7.08592 0.686279 10.3504 0.318763L10.9748 0.255011L11.6236 0.200633L12.2986 0.153756L12.998 0.116255L14.1006 0.0693779L14.8694 0.046877L16.0769 0.0225009L17.7926 0.00562523ZM12.7318 13.6862H7.59407C7.83783 25.3867 13.6881 32.4182 23.9447 32.4182H24.526V25.7242C28.2949 26.0992 31.145 28.8556 32.2888 32.4182H37.6141C36.1515 27.093 32.3076 24.1491 29.9075 23.0241C32.3076 21.6365 35.6827 18.2614 36.489 13.6862H31.6513C30.6013 17.3988 27.4886 20.774 24.526 21.0928V13.6862H19.6883V26.6617C16.6882 25.9117 12.9005 22.2741 12.7318 13.6862Z" fill="black"/>
</svg>
