<svg width="35" height="35" viewBox="0 0 35 35" fill="none" xmlns="http://www.w3.org/2000/svg">
<path d="M13.8387 0.00461932L14.9019 0.000244141H20.0996L21.1642 0.00461932L22.4972 0.0192033L23.1287 0.029412L23.7383 0.0454544L24.326 0.0658719L24.8919 0.0892062L25.4373 0.119832L25.9623 0.156292L26.4655 0.200044L26.9511 0.248171C29.4887 0.534016 31.2286 1.14654 32.5411 2.4591C33.8537 3.77165 34.4662 5.51006 34.7521 8.04912L34.8017 8.53477L34.8439 9.03937L34.8804 9.56439L34.9096 10.1084L34.946 10.9659L34.9635 11.5639L34.9825 12.5031L34.9956 13.8375L35.0015 15.2667L35 20.0984L34.9956 21.163L34.981 22.496L34.9708 23.1275L34.9548 23.7371L34.9344 24.3248L34.911 24.8907L34.8804 25.4361L34.8439 25.9611L34.8002 26.4643L34.7521 26.9499C34.4662 29.4875 33.8537 31.2274 32.5411 32.5399C31.2286 33.8525 29.4902 34.465 26.9511 34.7509L26.4655 34.8004L25.9609 34.8427L25.4358 34.8792L24.8919 34.9084L24.0343 34.9448L23.4364 34.9623L22.4972 34.9813L21.1628 34.9944L19.7335 35.0002L14.9019 34.9988L13.8372 34.9944L12.5043 34.9798L11.8728 34.9696L11.2632 34.9536L10.6754 34.9332L10.1096 34.9098L9.56415 34.8792L9.03913 34.8427L8.53598 34.799L8.05033 34.7509C5.51273 34.465 3.77287 33.8525 2.46031 32.5399C1.14776 31.2274 0.535231 29.489 0.249385 26.9499L0.1998 26.4643L0.157507 25.9597L0.121047 25.4346L0.0918788 24.8907L0.055419 24.0331L0.0379182 23.4352L0.0189591 22.496L0.00583358 21.1615L0 19.7323L0.00145839 14.9007L0.00583358 13.836L0.0204175 12.5031L0.0306263 11.8716L0.0466686 11.262L0.0670861 10.6742L0.0904204 10.1084L0.121047 9.56293L0.157507 9.03791L0.201258 8.53477L0.249385 8.04912C0.535231 5.51152 1.14776 3.77165 2.46031 2.4591C3.77287 1.14654 5.51127 0.534016 8.05033 0.248171L8.53598 0.198586L9.04058 0.156292L9.56561 0.119832L10.1096 0.0906646L10.9671 0.0542047L11.5651 0.036704L12.5043 0.0177449L13.8387 0.00461932ZM9.90249 10.6451H5.9065C6.09609 19.7454 10.6463 25.2144 18.6237 25.2144H19.0758V20.008C22.0072 20.2996 24.2239 22.4435 25.1135 25.2144H29.2554C28.1178 21.0726 25.1281 18.7829 23.2614 17.9079C25.1281 16.8287 27.7532 14.2035 28.3803 10.6451H24.6177C23.801 13.5327 21.3801 16.1578 19.0758 16.4057V10.6451H15.3131V20.7371C12.9797 20.1538 10.0338 17.3245 9.90249 10.6451Z" fill="#7823D1"/>
</svg>
