<svg width="203" height="76" viewBox="0 0 203 76" fill="none" xmlns="http://www.w3.org/2000/svg">
<path d="M200.967 0.423828C191.367 -3.99563 177.963 27.5962 174.884 27.9585C171.805 28.3208 163.835 11.509 155.866 16.9084C147.896 22.3078 164.198 37.3783 163.835 41.0012C163.473 44.6242 141.557 68.7169 149.888 75.0571C158.22 81.3973 169.994 53.6817 173.073 53.8628C176.152 54.0439 182.673 69.5737 190.461 64.7316C198.25 59.8895 183.76 43.8996 183.397 41.0012C183.035 38.1029 210.567 4.84328 200.967 0.423828Z" fill="url(#paint0_linear_60_3)"/>
<path d="M2.256 51V34.2H9.6C11.424 34.2 13.024 34.552 14.4 35.256C15.776 35.96 16.848 36.936 17.616 38.184C18.384 39.432 18.768 40.904 18.768 42.6C18.768 44.28 18.384 45.752 17.616 47.016C16.848 48.264 15.776 49.24 14.4 49.944C13.024 50.648 11.424 51 9.6 51H2.256ZM5.376 48.36H9.456C10.72 48.36 11.808 48.12 12.72 47.64C13.648 47.16 14.36 46.488 14.856 45.624C15.368 44.76 15.624 43.752 15.624 42.6C15.624 41.432 15.368 40.424 14.856 39.576C14.36 38.712 13.648 38.04 12.72 37.56C11.808 37.08 10.72 36.84 9.456 36.84H5.376V48.36ZM27.8201 51.168C26.3961 51.168 25.1481 50.888 24.0761 50.328C23.0201 49.752 22.1961 48.968 21.6041 47.976C21.0281 46.984 20.7401 45.856 20.7401 44.592C20.7401 43.312 21.0201 42.184 21.5801 41.208C22.1561 40.216 22.9401 39.44 23.9321 38.88C24.9401 38.32 26.0841 38.04 27.3641 38.04C28.6121 38.04 29.7241 38.312 30.7001 38.856C31.6761 39.4 32.4441 40.168 33.0041 41.16C33.5641 42.152 33.8441 43.32 33.8441 44.664C33.8441 44.792 33.8361 44.936 33.8201 45.096C33.8201 45.256 33.8121 45.408 33.7961 45.552H23.1161V43.56H32.2121L31.0361 44.184C31.0521 43.448 30.9001 42.8 30.5801 42.24C30.2601 41.68 29.8201 41.24 29.2601 40.92C28.7161 40.6 28.0841 40.44 27.3641 40.44C26.6281 40.44 25.9801 40.6 25.4201 40.92C24.8761 41.24 24.4441 41.688 24.1241 42.264C23.8201 42.824 23.6681 43.488 23.6681 44.256V44.736C23.6681 45.504 23.8441 46.184 24.1961 46.776C24.5481 47.368 25.0441 47.824 25.6841 48.144C26.3241 48.464 27.0601 48.624 27.8921 48.624C28.6121 48.624 29.2601 48.512 29.8361 48.288C30.4121 48.064 30.9241 47.712 31.3721 47.232L32.9801 49.08C32.4041 49.752 31.6761 50.272 30.7961 50.64C29.9321 50.992 28.9401 51.168 27.8201 51.168ZM40.6858 51.168C39.6138 51.168 38.5818 51.032 37.5898 50.76C36.6138 50.472 35.8378 50.128 35.2618 49.728L36.4138 47.448C36.9898 47.816 37.6778 48.12 38.4778 48.36C39.2778 48.6 40.0778 48.72 40.8778 48.72C41.8218 48.72 42.5018 48.592 42.9178 48.336C43.3498 48.08 43.5658 47.736 43.5658 47.304C43.5658 46.952 43.4218 46.688 43.1338 46.512C42.8458 46.32 42.4698 46.176 42.0058 46.08C41.5418 45.984 41.0218 45.896 40.4458 45.816C39.8858 45.736 39.3178 45.632 38.7418 45.504C38.1818 45.36 37.6698 45.16 37.2058 44.904C36.7418 44.632 36.3658 44.272 36.0778 43.824C35.7898 43.376 35.6458 42.784 35.6458 42.048C35.6458 41.232 35.8778 40.528 36.3418 39.936C36.8058 39.328 37.4538 38.864 38.2858 38.544C39.1338 38.208 40.1338 38.04 41.2858 38.04C42.1498 38.04 43.0218 38.136 43.9018 38.328C44.7818 38.52 45.5098 38.792 46.0858 39.144L44.9338 41.424C44.3258 41.056 43.7098 40.808 43.0858 40.68C42.4778 40.536 41.8698 40.464 41.2618 40.464C40.3498 40.464 39.6698 40.6 39.2218 40.872C38.7898 41.144 38.5738 41.488 38.5738 41.904C38.5738 42.288 38.7178 42.576 39.0058 42.768C39.2938 42.96 39.6698 43.112 40.1338 43.224C40.5978 43.336 41.1098 43.432 41.6698 43.512C42.2458 43.576 42.8138 43.68 43.3738 43.824C43.9338 43.968 44.4458 44.168 44.9098 44.424C45.3898 44.664 45.7738 45.008 46.0618 45.456C46.3498 45.904 46.4938 46.488 46.4938 47.208C46.4938 48.008 46.2538 48.704 45.7738 49.296C45.3098 49.888 44.6458 50.352 43.7818 50.688C42.9178 51.008 41.8858 51.168 40.6858 51.168ZM49.0774 51V38.184H52.0774V51H49.0774ZM50.5894 36.072C50.0294 36.072 49.5654 35.896 49.1974 35.544C48.8454 35.192 48.6694 34.768 48.6694 34.272C48.6694 33.76 48.8454 33.336 49.1974 33C49.5654 32.648 50.0294 32.472 50.5894 32.472C51.1494 32.472 51.6054 32.64 51.9574 32.976C52.3254 33.296 52.5094 33.704 52.5094 34.2C52.5094 34.728 52.3334 35.176 51.9814 35.544C51.6294 35.896 51.1654 36.072 50.5894 36.072ZM61.8229 55.824C60.6389 55.824 59.4789 55.664 58.3429 55.344C57.2229 55.04 56.3029 54.592 55.5829 54L56.9269 51.744C57.4869 52.208 58.1909 52.576 59.0389 52.848C59.9029 53.136 60.7749 53.28 61.6549 53.28C63.0629 53.28 64.0949 52.952 64.7509 52.296C65.4069 51.656 65.7349 50.688 65.7349 49.392V47.112L65.9749 44.208L65.8789 41.304V38.184H68.7349V49.056C68.7349 51.376 68.1429 53.08 66.9589 54.168C65.7749 55.272 64.0629 55.824 61.8229 55.824ZM61.4389 50.424C60.2229 50.424 59.1189 50.168 58.1269 49.656C57.1509 49.128 56.3749 48.4 55.7989 47.472C55.2389 46.544 54.9589 45.456 54.9589 44.208C54.9589 42.976 55.2389 41.896 55.7989 40.968C56.3749 40.04 57.1509 39.32 58.1269 38.808C59.1189 38.296 60.2229 38.04 61.4389 38.04C62.5269 38.04 63.5029 38.256 64.3669 38.688C65.2309 39.12 65.9189 39.792 66.4309 40.704C66.9589 41.616 67.2229 42.784 67.2229 44.208C67.2229 45.632 66.9589 46.808 66.4309 47.736C65.9189 48.648 65.2309 49.328 64.3669 49.776C63.5029 50.208 62.5269 50.424 61.4389 50.424ZM61.8949 47.88C62.6469 47.88 63.3189 47.728 63.9109 47.424C64.5029 47.104 64.9589 46.672 65.2789 46.128C65.6149 45.568 65.7829 44.928 65.7829 44.208C65.7829 43.488 65.6149 42.856 65.2789 42.312C64.9589 41.752 64.5029 41.328 63.9109 41.04C63.3189 40.736 62.6469 40.584 61.8949 40.584C61.1429 40.584 60.4629 40.736 59.8549 41.04C59.2629 41.328 58.7989 41.752 58.4629 42.312C58.1429 42.856 57.9829 43.488 57.9829 44.208C57.9829 44.928 58.1429 45.568 58.4629 46.128C58.7989 46.672 59.2629 47.104 59.8549 47.424C60.4629 47.728 61.1429 47.88 61.8949 47.88ZM79.9509 38.04C80.9749 38.04 81.8869 38.24 82.6869 38.64C83.5029 39.04 84.1429 39.656 84.6069 40.488C85.0709 41.304 85.3029 42.36 85.3029 43.656V51H82.3029V44.04C82.3029 42.904 82.0309 42.056 81.4869 41.496C80.9589 40.936 80.2149 40.656 79.2549 40.656C78.5509 40.656 77.9269 40.8 77.3829 41.088C76.8389 41.376 76.4149 41.808 76.1109 42.384C75.8229 42.944 75.6789 43.656 75.6789 44.52V51H72.6789V38.184H75.5349V41.64L75.0309 40.584C75.4789 39.768 76.1269 39.144 76.9749 38.712C77.8389 38.264 78.8309 38.04 79.9509 38.04ZM96.0294 51V34.2H99.1494V48.36H107.933V51H96.0294ZM118.028 51V48.408L117.86 47.856V43.32C117.86 42.44 117.596 41.76 117.068 41.28C116.54 40.784 115.74 40.536 114.668 40.536C113.948 40.536 113.236 40.648 112.532 40.872C111.844 41.096 111.26 41.408 110.78 41.808L109.604 39.624C110.292 39.096 111.108 38.704 112.052 38.448C113.012 38.176 114.004 38.04 115.028 38.04C116.884 38.04 118.316 38.488 119.324 39.384C120.348 40.264 120.86 41.632 120.86 43.488V51H118.028ZM113.996 51.168C113.036 51.168 112.196 51.008 111.476 50.688C110.756 50.352 110.196 49.896 109.796 49.32C109.412 48.728 109.22 48.064 109.22 47.328C109.22 46.608 109.388 45.96 109.724 45.384C110.076 44.808 110.644 44.352 111.428 44.016C112.212 43.68 113.252 43.512 114.548 43.512H118.268V45.504H114.764C113.74 45.504 113.052 45.672 112.7 46.008C112.348 46.328 112.172 46.728 112.172 47.208C112.172 47.752 112.388 48.184 112.82 48.504C113.252 48.824 113.852 48.984 114.62 48.984C115.356 48.984 116.012 48.816 116.588 48.48C117.18 48.144 117.604 47.648 117.86 46.992L118.364 48.792C118.076 49.544 117.556 50.128 116.804 50.544C116.068 50.96 115.132 51.168 113.996 51.168ZM131.814 51.168C130.726 51.168 129.758 50.928 128.91 50.448C128.062 49.968 127.39 49.248 126.894 48.288C126.414 47.312 126.174 46.08 126.174 44.592C126.174 43.088 126.422 41.856 126.918 40.896C127.43 39.936 128.11 39.224 128.958 38.76C129.822 38.28 130.774 38.04 131.814 38.04C133.078 38.04 134.19 38.312 135.15 38.856C136.126 39.4 136.894 40.16 137.454 41.136C138.03 42.112 138.318 43.264 138.318 44.592C138.318 45.92 138.03 47.072 137.454 48.048C136.894 49.024 136.126 49.792 135.15 50.352C134.19 50.896 133.078 51.168 131.814 51.168ZM124.71 51V33.192H127.71V41.16L127.47 44.568L127.566 47.976V51H124.71ZM131.478 48.6C132.198 48.6 132.838 48.44 133.398 48.12C133.974 47.8 134.43 47.336 134.766 46.728C135.102 46.12 135.27 45.408 135.27 44.592C135.27 43.76 135.102 43.048 134.766 42.456C134.43 41.848 133.974 41.384 133.398 41.064C132.838 40.744 132.198 40.584 131.478 40.584C130.758 40.584 130.11 40.744 129.534 41.064C128.958 41.384 128.502 41.848 128.166 42.456C127.83 43.048 127.662 43.76 127.662 44.592C127.662 45.408 127.83 46.12 128.166 46.728C128.502 47.336 128.958 47.8 129.534 48.12C130.11 48.44 130.758 48.6 131.478 48.6Z" fill="black"/>
<defs>
<linearGradient id="paint0_linear_60_3" x1="194" y1="29" x2="151" y2="32.5" gradientUnits="userSpaceOnUse">
<stop stop-color="#7823D1"/>
<stop offset="1" stop-color="#7823D1" stop-opacity="0"/>
</linearGradient>
</defs>
</svg>
