<svg width="80" height="76" viewBox="0 0 80 76" fill="none" xmlns="http://www.w3.org/2000/svg">
<path d="M48.4211 76C44.9123 76 41.9298 74.7685 39.4737 72.3056C37.0175 69.8426 35.7895 66.8519 35.7895 63.3333C35.7895 59.8148 37.0175 56.8241 39.4737 54.3611C41.9298 51.8982 44.9123 50.6667 48.4211 50.6667C51.9298 50.6667 54.9123 51.8982 57.3684 54.3611C59.8246 56.8241 61.0526 59.8148 61.0526 63.3333C61.0526 66.8519 59.8246 69.8426 57.3684 72.3056C54.9123 74.7685 51.9298 76 48.4211 76ZM56.8421 46.4444C50.386 46.4444 44.9123 44.1926 40.4211 39.6889C35.9298 35.1852 33.6842 29.6963 33.6842 23.2222C33.6842 16.7481 35.9298 11.2593 40.4211 6.75556C44.9123 2.25185 50.386 0 56.8421 0C63.2982 0 68.7719 2.25185 73.2632 6.75556C77.7544 11.2593 80 16.7481 80 23.2222C80 29.6963 77.7544 35.1852 73.2632 39.6889C68.7719 44.1926 63.2982 46.4444 56.8421 46.4444ZM16.8421 63.3333C12.2105 63.3333 8.24562 61.6796 4.94737 58.3722C1.64912 55.0648 0 51.0889 0 46.4444C0 41.8 1.64912 37.8241 4.94737 34.5167C8.24562 31.2093 12.2105 29.5556 16.8421 29.5556C21.4737 29.5556 25.4386 31.2093 28.7368 34.5167C32.0351 37.8241 33.6842 41.8 33.6842 46.4444C33.6842 51.0889 32.0351 55.0648 28.7368 58.3722C25.4386 61.6796 21.4737 63.3333 16.8421 63.3333Z" fill="#7823D1"/>
</svg>
